<svg width="18" height="18" viewBox="0 0 18 18" fill="none" xmlns="http://www.w3.org/2000/svg">
<path d="M10.41 12.161V1.5459C10.41 1.31292 10.2211 1.12402 9.98815 1.12402H8.0194C7.78642 1.12402 7.59753 1.31292 7.59753 1.5459V12.161H5.97827C5.22655 12.161 4.8501 13.0698 5.38163 13.6014L8.40714 16.6269C8.73666 16.9564 9.27089 16.9564 9.60038 16.6269L12.6259 13.6014C13.1574 13.0699 12.781 12.161 12.0293 12.161H10.41Z" fill="black"/>
<mask id="mask0_1_137" style="mask-type:luminance" maskUnits="userSpaceOnUse" x="5" y="1" width="8" height="16">
<path d="M10.41 12.161V1.5459C10.41 1.31292 10.2211 1.12402 9.98815 1.12402H8.0194C7.78642 1.12402 7.59753 1.31292 7.59753 1.5459V12.161H5.97827C5.22655 12.161 4.8501 13.0698 5.38163 13.6014L8.40714 16.6269C8.73666 16.9564 9.27089 16.9564 9.60038 16.6269L12.6259 13.6014C13.1574 13.0699 12.781 12.161 12.0293 12.161H10.41Z" fill="white"/>
</mask>
<g mask="url(#mask0_1_137)">
<rect y="-0.000976562" width="18" height="18" fill="white"/>
</g>
</svg>