<svg width="208" height="120" viewBox="0 0 208 120" fill="none" xmlns="http://www.w3.org/2000/svg">
<path fill-rule="evenodd" clip-rule="evenodd" d="M2.19959 119.443C0.983713 119.443 0.000183105 118.459 0.000183105 117.246V62.0129C0.000183105 60.8012 0.983713 59.8159 2.19959 59.8159H24.1972C29.7602 59.8159 34.1449 61.4706 37.2278 64.7377C40.2796 67.9706 41.8243 72.3777 41.8243 77.8382C41.8243 83.3018 40.2784 87.71 37.229 90.9418C34.1461 94.2077 29.7602 95.8629 24.1972 95.8629C22.9814 95.8629 21.999 94.8782 21.999 93.6659C21.999 92.4512 22.9814 91.4671 24.1972 91.4671C28.5649 91.4671 31.7819 90.3082 34.0325 87.9229C36.3178 85.5012 37.4302 82.2035 37.4302 77.8382C37.4302 73.4765 36.3178 70.1782 34.0314 67.7553C31.7784 65.37 28.5637 64.2112 24.1972 64.2112H4.39548V117.246C4.39548 118.459 3.41254 119.443 2.19959 119.443Z" fill="white"/>
<path fill-rule="evenodd" clip-rule="evenodd" d="M205.223 119.443H175.076C173.862 119.443 172.878 118.459 172.878 117.246V62.0129C172.878 60.8012 173.862 59.8159 175.076 59.8159C176.29 59.8159 177.274 60.8012 177.274 62.0129V115.048H205.223C206.438 115.048 207.422 116.032 207.422 117.246C207.422 118.459 206.438 119.443 205.223 119.443Z" fill="white"/>
<path fill-rule="evenodd" clip-rule="evenodd" d="M150.656 67.661C146.265 62.4569 140.171 59.8169 132.546 59.8169C114.272 59.8169 110.346 75.5275 104.574 86.1745C104.574 86.1745 97.4172 102.361 92.1231 108.979C86.8289 115.596 78.9578 115.242 77.6725 115.242C71.2537 115.242 66.3795 113.163 62.7719 108.889C59.1272 104.565 57.2795 98.0857 57.2795 89.6298C57.2795 85.344 57.7654 81.5434 58.726 78.3292C59.6642 75.1881 61.0301 72.5181 62.7872 70.3922C64.5254 68.2822 66.5907 66.7298 69.0995 65.651C71.6107 64.5651 74.4954 64.0169 77.6725 64.0169C81.8966 64.0169 85.4537 64.9257 88.2425 66.7204C91.0678 68.5404 93.236 71.1945 94.8695 74.8298C95.2084 75.5798 95.9613 76.0675 96.7884 76.0675C97.0854 76.0675 97.3754 76.004 97.6484 75.8816C98.7025 75.4081 99.1742 74.1616 98.7013 73.1051C96.7519 68.7698 93.9972 65.4334 90.5148 63.1892C87.0407 60.9528 82.7184 59.8169 77.6725 59.8169C73.9201 59.8169 70.4748 60.481 67.4354 61.791C64.3513 63.1216 61.6978 65.1163 59.5484 67.7181C57.4325 70.2787 55.8013 73.4451 54.7013 77.1281C53.6248 80.7363 53.0789 84.9404 53.0789 89.6298C53.0789 99.1004 55.2607 106.494 59.5625 111.597C63.9531 116.802 70.0472 119.442 77.6725 119.442C95.946 119.442 99.3372 104.92 105.109 94.2734C105.109 94.2734 112.801 76.8975 118.095 70.2798C123.389 63.6622 131.26 64.0169 132.546 64.0169C138.965 64.0169 143.838 66.0951 147.447 70.3692C151.091 74.6934 152.939 81.1734 152.939 89.6292C152.939 93.9151 152.453 97.7157 151.492 100.93C150.554 104.07 149.188 106.741 147.431 108.867C145.692 110.977 143.628 112.529 141.119 113.607C138.608 114.693 135.722 115.242 132.546 115.242C128.321 115.242 124.764 114.333 121.975 112.538C119.15 110.718 116.982 108.065 115.349 104.429C115.01 103.679 114.257 103.191 113.43 103.191C113.133 103.191 112.843 103.255 112.57 103.377C111.516 103.85 111.044 105.097 111.517 106.154C113.466 110.489 116.221 113.825 119.704 116.069C123.178 118.306 127.5 119.442 132.546 119.442C136.298 119.442 139.743 118.777 142.782 117.467C145.867 116.137 148.521 114.143 150.67 111.541C152.786 108.98 154.417 105.813 155.517 102.131C156.594 98.5228 157.139 94.3181 157.139 89.6292C157.139 80.1581 154.958 72.7651 150.656 67.661Z" fill="white"/>
<path fill-rule="evenodd" clip-rule="evenodd" d="M17.6855 17.0728C17.5749 17.021 17.4585 16.9951 17.3385 16.9951C17.0167 16.9951 16.7208 17.1845 16.5861 17.4775C15.9373 18.8822 15.0608 19.9439 13.9055 20.7251C12.7785 21.4863 11.365 21.8728 9.70436 21.8728C7.17142 21.8728 5.24789 21.0528 3.82495 19.3657C2.38613 17.6592 1.6573 15.1022 1.6573 11.7663C1.6573 10.0751 1.84907 8.57512 2.22848 7.30629C2.59848 6.06688 3.1373 5.01335 3.83024 4.17453C4.51671 3.34218 5.33201 2.72923 6.32142 2.30394C7.31201 1.87512 8.45083 1.65923 9.70436 1.65923C11.3714 1.65923 12.775 2.01747 13.875 2.7257C14.9908 3.44394 15.8455 4.491 16.4908 5.9257C16.6238 6.22218 16.9214 6.41453 17.2473 6.41453C17.3644 6.41453 17.4791 6.38923 17.5867 6.341C18.0026 6.15335 18.1897 5.66218 18.0026 5.2457C17.2332 3.53394 16.1461 2.21806 14.7726 1.33218C13.4008 0.449822 11.6955 0.00158691 9.70436 0.00158691C8.22377 0.00158691 6.86436 0.26394 5.66495 0.780999C4.44789 1.3057 3.40083 2.09276 2.55319 3.11923C1.7173 4.12982 1.07436 5.37923 0.639656 6.83276C0.215538 8.25688 0.000244141 9.91512 0.000244141 11.7663C0.000244141 15.5034 0.860244 18.4204 2.55789 20.4345C4.29083 22.4881 6.69495 23.5298 9.70436 23.5298C11.702 23.5298 13.4279 23.0475 14.8332 22.0981C16.2267 21.1569 17.3226 19.8351 18.0902 18.1716C18.1838 17.9704 18.192 17.7463 18.1155 17.5386C18.0402 17.3304 17.8873 17.1645 17.6855 17.0728Z" fill="white"/>
<path fill-rule="evenodd" clip-rule="evenodd" d="M56.3385 10.3598L56.1444 10.0756L56.3632 9.81034L63.3497 1.35858C63.6403 1.00622 63.5914 0.482106 63.2385 0.190341C63.0897 0.0668116 62.9073 0.00210571 62.712 0.00210571C62.4626 0.00210571 62.2303 0.110929 62.0726 0.302106L51.6685 12.8903L50.8573 13.8709V12.5986V0.829753C50.8573 0.372694 50.485 0.00210571 50.0273 0.00210571C49.5697 0.00210571 49.1985 0.372694 49.1985 0.829753V22.7015C49.1985 23.158 49.5697 23.5298 50.0273 23.5298C50.485 23.5298 50.8573 23.158 50.8573 22.7015V16.6374V16.4727L50.9614 16.3456L54.6561 11.8756L55.045 11.405L55.3879 11.9098L63.0508 23.1674C63.2061 23.3939 63.4626 23.5298 63.7379 23.5298C63.905 23.5298 64.0655 23.4809 64.202 23.3868C64.3867 23.2615 64.5103 23.0733 64.5508 22.8556C64.592 22.6392 64.5461 22.418 64.422 22.2356L56.3385 10.3598Z" fill="white"/>
<path fill-rule="evenodd" clip-rule="evenodd" d="M85.4946 21.8729H72.7458H72.2881V21.4146V13.024V12.5664H72.7458H84.3775C84.8346 12.5664 85.2064 12.194 85.2064 11.7376C85.2064 11.2799 84.8346 10.9082 84.3775 10.9082H72.7458H72.2881V10.4505V2.11581V1.65817H72.7458H85.4946C85.9505 1.65817 86.3222 1.28699 86.3222 0.829931C86.3222 0.372872 85.9505 0.000518799 85.4946 0.000518799H71.4587C71.0017 0.000518799 70.6293 0.372872 70.6293 0.829931V22.7005C70.6293 23.1582 71.0017 23.5293 71.4587 23.5293H85.4946C85.9505 23.5293 86.3222 23.1582 86.3222 22.7005C86.3222 22.2446 85.9505 21.8729 85.4946 21.8729Z" fill="white"/>
<path fill-rule="evenodd" clip-rule="evenodd" d="M24.375 22.3336L31.7415 0.614767C31.8656 0.247708 32.2097 6.10352e-05 32.598 6.10352e-05H34.6874C35.075 6.10352e-05 35.4197 0.247708 35.5438 0.614767L42.9103 22.3336C43.0709 22.8071 42.818 23.3207 42.345 23.4812C42.248 23.5136 42.1503 23.5295 42.0538 23.5295C41.6768 23.5295 41.3244 23.2918 41.1968 22.9148L34.0385 1.81065H33.2468L28.9744 14.4048H35.598L36.2109 16.2154H28.3609L26.0885 22.9148C25.9609 23.2918 25.6091 23.5295 25.2315 23.5295C25.1356 23.5295 25.0374 23.5136 24.9409 23.4812C24.468 23.3207 24.2144 22.8071 24.375 22.3336Z" fill="white"/>
</svg>