<svg width="100" height="96" viewBox="0 0 100 96" fill="none" xmlns="http://www.w3.org/2000/svg">
<path fill-rule="evenodd" clip-rule="evenodd" d="M45.4421 18.9041L38.2706 18.9036C37.9071 18.9036 37.6896 18.7076 37.6896 18.4271C37.6896 18.3281 37.7171 18.2181 37.7751 18.1036L41.4551 10.7441C41.5656 10.5236 41.7111 10.4131 41.8561 10.4131C42.0016 10.4131 42.1466 10.5236 42.2576 10.7436L45.9376 18.1031C45.9956 18.2181 46.0231 18.3281 46.0231 18.4276C46.0231 18.7076 45.8061 18.9041 45.4421 18.9041ZM45.4421 8.49101H38.2706C37.9071 8.49101 37.6896 8.29451 37.6896 8.01451C37.6896 7.91501 37.7171 7.80501 37.7751 7.69051L41.4551 0.331C41.5656 0.1105 41.7111 0 41.8561 0C42.0016 0 42.1466 0.11 42.2576 0.331L45.9376 7.69001C45.9956 7.80501 46.0231 7.91501 46.0231 8.01451C46.0231 8.29451 45.8061 8.49101 45.4421 8.49101ZM44.5958 52.2279H39.1168C38.1963 52.2279 37.4503 51.4819 37.4503 50.5614V23.9823C37.4503 23.0623 38.1963 22.3163 39.1168 22.3163H44.5958C45.5158 22.3163 46.2623 23.0623 46.2623 23.9823V50.5614C46.2623 51.4819 45.5158 52.2279 44.5958 52.2279ZM93.2871 49.6414C93.3246 49.6639 93.4096 49.7174 93.5196 49.7919C102.701 54.3844 102.17 73.474 91.6481 76.1845C80.4561 79.0675 7.90751 95.4195 5.23151 95.94C5.02251 95.98 4.81501 96 4.60901 96C2.173 96 0 93.2365 0 89.538V35.7564C0 31.7474 2.1585 29.3574 5.23601 29.3574C5.67451 29.3574 19.397 32.4639 35.784 36.2129V37.0684C19.7035 33.3954 6.17001 30.3334 5.19601 30.1904C2.504 30.2114 0.834001 32.3399 0.834001 35.7564V69.924C0.865501 70.0965 1.1845 71.6929 2.2495 72.451C2.753 72.8084 3.336 72.9249 4.03301 72.8035C9.23051 71.9054 89.2136 55.8009 93.3936 54.0519C94.3006 53.6724 94.7791 53.2324 94.8156 52.7429C94.8766 51.9279 93.7481 50.9659 93.1051 50.5179C92.5861 50.2619 92.0346 50.0534 91.4446 49.9049C89.3086 49.3674 68.5501 44.5734 47.9291 39.8474V38.9969C69.1466 43.8684 90.5346 48.8169 91.6481 49.0964C92.1501 49.2229 92.6281 49.3884 93.0846 49.5879C93.1541 49.5899 93.2231 49.6034 93.2871 49.6414Z" fill="white"/>
</svg>