<svg width="30" height="30" viewBox="0 0 30 30" fill="none" xmlns="http://www.w3.org/2000/svg">
<path fill-rule="evenodd" clip-rule="evenodd" d="M30 10.3125V15H0V10.3125C0 8.75918 1.25918 7.5 2.8125 7.5H7.5V4.6875C7.5 3.13418 8.75918 1.875 10.3125 1.875H19.6875C21.2408 1.875 22.5 3.13418 22.5 4.6875V7.5H27.1875C28.7408 7.5 30 8.75918 30 10.3125ZM18.75 16.875H30V25.3125C30 26.8658 28.7408 28.125 27.1875 28.125H2.8125C1.25918 28.125 0 26.8658 0 25.3125V16.875H11.25V18.0469C11.25 18.4352 11.5648 18.75 11.9531 18.75H18.0469C18.4352 18.75 18.75 18.4352 18.75 18.0469V16.875ZM11.25 5.625H18.75V7.5H11.25V5.625Z" fill="black"/>
<mask id="mask0_1_296" style="mask-type:luminance" maskUnits="userSpaceOnUse" x="0" y="1" width="30" height="28">
<path fill-rule="evenodd" clip-rule="evenodd" d="M30 10.3125V15H0V10.3125C0 8.75918 1.25918 7.5 2.8125 7.5H7.5V4.6875C7.5 3.13418 8.75918 1.875 10.3125 1.875H19.6875C21.2408 1.875 22.5 3.13418 22.5 4.6875V7.5H27.1875C28.7408 7.5 30 8.75918 30 10.3125ZM18.75 16.875H30V25.3125C30 26.8658 28.7408 28.125 27.1875 28.125H2.8125C1.25918 28.125 0 26.8658 0 25.3125V16.875H11.25V18.0469C11.25 18.4352 11.5648 18.75 11.9531 18.75H18.0469C18.4352 18.75 18.75 18.4352 18.75 18.0469V16.875ZM11.25 5.625H18.75V7.5H11.25V5.625Z" fill="white"/>
</mask>
<g mask="url(#mask0_1_296)">
<rect width="30" height="30" fill="white"/>
</g>
</svg>