<svg width="16" height="16" viewBox="0 0 16 16" fill="none" xmlns="http://www.w3.org/2000/svg">
<g opacity="0.4">
<path fill-rule="evenodd" clip-rule="evenodd" d="M15.1875 5.41903V2.22412C15.1875 1.89323 14.9193 1.625 14.5885 1.625H11.3947C10.8614 1.625 10.595 2.27155 10.9712 2.64777L11.8622 3.53909L5.78463 9.6183C5.55071 9.85226 5.55071 10.2316 5.78463 10.4656L6.34932 11.0304C6.58324 11.2644 6.96245 11.2644 7.19637 11.0304L13.2739 4.95127L14.165 5.84269C14.5396 6.21736 15.1875 5.95477 15.1875 5.41903ZM10.5713 8.78435L10.9706 8.38493C11.3479 8.00749 11.9931 8.27479 11.9931 8.80856V13.208C11.9931 13.8698 11.4567 14.4062 10.7951 14.4062H2.01042C1.34882 14.4062 0.8125 13.8698 0.8125 13.208V4.4209C0.8125 3.75912 1.34882 3.22266 2.01042 3.22266H9.39757C9.93117 3.22266 10.1984 3.86798 9.82108 4.24543L9.42178 4.64485C9.30945 4.75719 9.15711 4.8203 8.99826 4.82031H2.40972V12.8086H10.3958V9.208C10.3958 9.0491 10.4589 8.89671 10.5713 8.78435Z" fill="black"/>
<mask id="mask0_1_115" style="mask-type:luminance" maskUnits="userSpaceOnUse" x="0" y="1" width="16" height="14">
<path fill-rule="evenodd" clip-rule="evenodd" d="M15.1875 5.41903V2.22412C15.1875 1.89323 14.9193 1.625 14.5885 1.625H11.3947C10.8614 1.625 10.595 2.27155 10.9712 2.64777L11.8622 3.53909L5.78463 9.6183C5.55071 9.85226 5.55071 10.2316 5.78463 10.4656L6.34932 11.0304C6.58324 11.2644 6.96245 11.2644 7.19637 11.0304L13.2739 4.95127L14.165 5.84269C14.5396 6.21736 15.1875 5.95477 15.1875 5.41903ZM10.5713 8.78435L10.9706 8.38493C11.3479 8.00749 11.9931 8.27479 11.9931 8.80856V13.208C11.9931 13.8698 11.4567 14.4062 10.7951 14.4062H2.01042C1.34882 14.4062 0.8125 13.8698 0.8125 13.208V4.4209C0.8125 3.75912 1.34882 3.22266 2.01042 3.22266H9.39757C9.93117 3.22266 10.1984 3.86798 9.82108 4.24543L9.42178 4.64485C9.30945 4.75719 9.15711 4.8203 8.99826 4.82031H2.40972V12.8086H10.3958V9.208C10.3958 9.0491 10.4589 8.89671 10.5713 8.78435Z" fill="white"/>
</mask>
<g mask="url(#mask0_1_115)">
<rect width="16" height="16" fill="white"/>
</g>
</g>
</svg>