<svg width="24" height="24" viewBox="0 0 24 24" fill="none" xmlns="http://www.w3.org/2000/svg">
<path d="M22.5 2.65684V21.3365C22.5 21.9787 21.9797 22.4943 21.3422 22.4943H15.9891V14.3662H18.7172L19.125 11.1975H15.9844V9.17246C15.9844 8.25371 16.2375 7.63027 17.5547 7.63027H19.2328V4.79434C18.9422 4.75684 17.9484 4.66777 16.7859 4.66777C14.3672 4.66777 12.7078 6.14434 12.7078 8.8584V11.1975H9.97031V14.3662H12.7078V22.499H2.65781C2.02031 22.499 1.5 21.9787 1.5 21.3412V2.65684C1.5 2.01934 2.02031 1.49902 2.65781 1.49902H21.3375C21.9797 1.49902 22.5 2.01934 22.5 2.65684Z" fill="black"/>
<mask id="mask0_1_133" style="mask-type:luminance" maskUnits="userSpaceOnUse" x="1" y="1" width="22" height="22">
<path d="M22.5 2.65684V21.3365C22.5 21.9787 21.9797 22.4943 21.3422 22.4943H15.9891V14.3662H18.7172L19.125 11.1975H15.9844V9.17246C15.9844 8.25371 16.2375 7.63027 17.5547 7.63027H19.2328V4.79434C18.9422 4.75684 17.9484 4.66777 16.7859 4.66777C14.3672 4.66777 12.7078 6.14434 12.7078 8.8584V11.1975H9.97031V14.3662H12.7078V22.499H2.65781C2.02031 22.499 1.5 21.9787 1.5 21.3412V2.65684C1.5 2.01934 2.02031 1.49902 2.65781 1.49902H21.3375C21.9797 1.49902 22.5 2.01934 22.5 2.65684Z" fill="white" opacity="0.8"/>
</mask>
<g mask="url(#mask0_1_133)">
<rect y="-0.000976562" width="24" height="24" fill="white" opacity="0.8"/>
</g>
</svg>