<svg width="40" height="40" viewBox="0 0 40 40" fill="none" xmlns="http://www.w3.org/2000/svg">
<path d="M37.5 4.42969V35.5625C37.5 36.6328 36.6328 37.4922 35.5703 37.4922H26.6484V23.9453H31.1953L31.875 18.6641H26.6406V15.2891C26.6406 13.7578 27.0625 12.7188 29.2578 12.7188H32.0547V7.99219C31.5703 7.92969 29.9141 7.78125 27.9766 7.78125C23.9453 7.78125 21.1797 10.2422 21.1797 14.7656V18.6641H16.6172V23.9453H21.1797V37.5H4.42969C3.36719 37.5 2.5 36.6328 2.5 35.5703V4.42969C2.5 3.36719 3.36719 2.5 4.42969 2.5H35.5625C36.6328 2.5 37.5 3.36719 37.5 4.42969Z" fill="black"/>
<mask id="mask0_1_317" style="mask-type:luminance" maskUnits="userSpaceOnUse" x="2" y="2" width="36" height="36">
<path d="M37.5 4.42969V35.5625C37.5 36.6328 36.6328 37.4922 35.5703 37.4922H26.6484V23.9453H31.1953L31.875 18.6641H26.6406V15.2891C26.6406 13.7578 27.0625 12.7188 29.2578 12.7188H32.0547V7.99219C31.5703 7.92969 29.9141 7.78125 27.9766 7.78125C23.9453 7.78125 21.1797 10.2422 21.1797 14.7656V18.6641H16.6172V23.9453H21.1797V37.5H4.42969C3.36719 37.5 2.5 36.6328 2.5 35.5703V4.42969C2.5 3.36719 3.36719 2.5 4.42969 2.5H35.5625C36.6328 2.5 37.5 3.36719 37.5 4.42969Z" fill="white"/>
</mask>
<g mask="url(#mask0_1_317)">
<rect width="40" height="40" fill="#5B10FF"/>
</g>
</svg>