<svg width="18" height="18" viewBox="0 0 18 18" fill="none" xmlns="http://www.w3.org/2000/svg">
<path fill-rule="evenodd" clip-rule="evenodd" d="M2.24648 1.125H15.75C16.3687 1.125 16.875 1.63477 16.875 2.26055V15.7395C16.875 16.3652 16.3687 16.875 15.75 16.875H2.24648C1.62773 16.875 1.125 16.3652 1.125 15.7395V2.26055C1.125 1.63477 1.62773 1.125 2.24648 1.125ZM3.55078 14.625H5.88516H5.88867V7.10859H3.55078V14.625ZM4.71797 6.08203C3.96914 6.08203 3.36445 5.47383 3.36445 4.72852C3.36445 3.9832 3.96914 3.375 4.71797 3.375C5.46328 3.375 6.07148 3.9832 6.07148 4.72852C6.07148 5.47734 5.4668 6.08203 4.71797 6.08203ZM12.3012 14.625H14.6355V10.5047C14.6355 8.47969 14.1961 6.92227 11.8336 6.92227C10.698 6.92227 9.93516 7.54453 9.62227 8.13516H9.59062V7.10859H7.35117V14.625H9.68555V10.9055C9.68555 9.92461 9.87187 8.97539 11.0883 8.97539C12.2836 8.97539 12.3012 10.0969 12.3012 10.9688V14.625Z" fill="black"/>
<mask id="mask0_1_237" style="mask-type:luminance" maskUnits="userSpaceOnUse" x="1" y="1" width="16" height="16">
<path fill-rule="evenodd" clip-rule="evenodd" d="M2.24648 1.125H15.75C16.3687 1.125 16.875 1.63477 16.875 2.26055V15.7395C16.875 16.3652 16.3687 16.875 15.75 16.875H2.24648C1.62773 16.875 1.125 16.3652 1.125 15.7395V2.26055C1.125 1.63477 1.62773 1.125 2.24648 1.125ZM3.55078 14.625H5.88516H5.88867V7.10859H3.55078V14.625ZM4.71797 6.08203C3.96914 6.08203 3.36445 5.47383 3.36445 4.72852C3.36445 3.9832 3.96914 3.375 4.71797 3.375C5.46328 3.375 6.07148 3.9832 6.07148 4.72852C6.07148 5.47734 5.4668 6.08203 4.71797 6.08203ZM12.3012 14.625H14.6355V10.5047C14.6355 8.47969 14.1961 6.92227 11.8336 6.92227C10.698 6.92227 9.93516 7.54453 9.62227 8.13516H9.59062V7.10859H7.35117V14.625H9.68555V10.9055C9.68555 9.92461 9.87187 8.97539 11.0883 8.97539C12.2836 8.97539 12.3012 10.0969 12.3012 10.9688V14.625Z" fill="white"/>
</mask>
<g mask="url(#mask0_1_237)">
<rect width="18" height="18" fill="#5B10FF"/>
</g>
</svg>