<svg width="39" height="40" viewBox="0 0 39 40" fill="none" xmlns="http://www.w3.org/2000/svg">
<path fill-rule="evenodd" clip-rule="evenodd" d="M38.0936 19.7641C38.0936 8.84947 29.2554 0.000244141 18.3534 0.000244141C11.99 0.000244141 6.33583 3.01947 2.7254 7.70101C2.86217 7.75717 2.9997 7.81101 3.13416 7.87871L5.43995 9.03255C8.58399 5.21947 13.2601 2.95947 18.3534 2.95947C27.6089 2.95947 35.1386 10.4972 35.1386 19.7641C35.1386 29.031 27.6089 36.5702 18.3534 36.5702C13.2586 36.5702 8.58399 34.3087 5.43995 30.4972L3.1357 31.651C2.9997 31.7187 2.86217 31.7726 2.7254 31.8272C6.33429 36.5087 11.9885 39.5279 18.3534 39.5279C29.2554 39.5279 38.0936 30.6787 38.0936 19.7641Z" fill="white"/>
<path fill-rule="evenodd" clip-rule="evenodd" d="M18.4581 20.6732C18.9576 20.4224 19.2073 20.0947 19.2073 19.764C19.2073 19.4371 18.9576 19.1078 18.4581 18.8571L1.81205 10.5247C0.815514 10.0255 0.000305176 10.5301 0.000305176 11.6471V27.8832C0.000305176 28.9994 0.815514 29.504 1.81205 29.0055L18.4581 20.6732Z" fill="white"/>
</svg>