<svg width="199" height="40" viewBox="0 0 199 40" fill="none" xmlns="http://www.w3.org/2000/svg">
<path fill-rule="evenodd" clip-rule="evenodd" d="M38.0936 19.7641C38.0936 8.84947 29.2554 0.000244141 18.3534 0.000244141C11.99 0.000244141 6.33583 3.01947 2.7254 7.70101C2.86217 7.75717 2.9997 7.81101 3.13416 7.87871L5.43995 9.03255C8.58399 5.21947 13.2601 2.95947 18.3534 2.95947C27.6089 2.95947 35.1386 10.4972 35.1386 19.7641C35.1386 29.031 27.6089 36.5702 18.3534 36.5702C13.2586 36.5702 8.58399 34.3087 5.43995 30.4972L3.1357 31.651C2.9997 31.7187 2.86217 31.7726 2.7254 31.8272C6.33429 36.5087 11.9885 39.5279 18.3534 39.5279C29.2554 39.5279 38.0936 30.6787 38.0936 19.7641Z" fill="white"/>
<path fill-rule="evenodd" clip-rule="evenodd" d="M18.4581 20.6732C18.9576 20.4224 19.2073 20.0947 19.2073 19.764C19.2073 19.4371 18.9576 19.1078 18.4581 18.8571L1.81205 10.5247C0.815514 10.0255 0.000305176 10.5301 0.000305176 11.6471V27.8832C0.000305176 28.9994 0.815514 29.504 1.81205 29.0055L18.4581 20.6732Z" fill="white"/>
<path fill-rule="evenodd" clip-rule="evenodd" d="M83.0857 28.6809C82.9005 28.5939 82.7046 28.5501 82.5033 28.5501C81.9632 28.5501 81.4676 28.8686 81.2409 29.3601C80.1522 31.7201 78.6816 33.5039 76.7431 34.817C74.8514 36.0955 72.4796 36.7439 69.6928 36.7439C65.4431 36.7439 62.2161 35.3662 59.8273 32.5332C57.4139 29.6663 56.19 25.3709 56.19 19.7655C56.19 16.9247 56.5127 14.4047 57.1481 12.2747C57.7697 10.1924 58.674 8.42241 59.8373 7.01317C60.989 5.61471 62.3567 4.58548 64.0171 3.8701C65.6797 3.15087 67.5898 2.78702 69.6928 2.78702C72.4903 2.78702 74.8453 3.38933 76.6924 4.57933C78.5633 5.78548 79.9978 7.54471 81.0804 9.95471C81.3047 10.4524 81.8034 10.7755 82.3504 10.7755C82.5471 10.7755 82.7392 10.7332 82.9198 10.6516C83.6174 10.3378 83.9317 9.51163 83.6174 8.81164C82.3266 5.93779 80.5026 3.72625 78.1975 2.23856C75.8964 0.755482 73.0343 0.00317383 69.6928 0.00317383C67.2087 0.00317383 64.9283 0.443174 62.916 1.31164C60.873 2.19317 59.1158 3.51548 57.6936 5.2401C56.2922 6.93779 55.2119 9.03702 54.4827 11.4786C53.7713 13.8701 53.4094 16.657 53.4094 19.7655C53.4094 26.0439 54.8538 30.9447 57.7021 34.3286C60.6095 37.7778 64.644 39.5286 69.6928 39.5286C73.0458 39.5286 75.9409 38.7186 78.2997 37.1232C80.637 35.5424 82.4764 33.3216 83.7657 30.527C83.9209 30.1893 83.9355 29.8124 83.8072 29.4639C83.6796 29.1139 83.423 28.8355 83.0857 28.6809Z" fill="white"/>
<path fill-rule="evenodd" clip-rule="evenodd" d="M147.944 17.4039L147.618 16.9263L147.986 16.4816L159.709 2.2824C160.196 1.6901 160.114 0.810097 159.523 0.320097C159.272 0.112405 158.966 0.00317383 158.639 0.00317383C158.22 0.00317383 157.83 0.186251 157.566 0.507789L140.107 21.6539L138.746 23.3024V21.1647V1.39394C138.746 0.626251 138.122 0.00317383 137.354 0.00317383C136.587 0.00317383 135.964 0.626251 135.964 1.39394V38.137C135.964 38.9032 136.587 39.5286 137.354 39.5286C138.122 39.5286 138.746 38.9032 138.746 38.137V27.9493V27.6732L138.922 27.4593L145.121 19.9509L145.774 19.1601L146.349 20.0078L159.208 38.9201C159.467 39.3001 159.898 39.5286 160.36 39.5286C160.641 39.5286 160.909 39.4455 161.139 39.2878C161.448 39.0778 161.655 38.7624 161.725 38.3955C161.793 38.0316 161.717 37.6609 161.508 37.3547L147.944 17.4039Z" fill="white"/>
<path fill-rule="evenodd" clip-rule="evenodd" d="M196.867 36.7443H175.475H174.706V35.9751V21.8797V21.1105H175.475H194.993C195.76 21.1105 196.383 20.4851 196.383 19.7174C196.383 18.9497 195.76 18.3251 194.993 18.3251H175.475H174.706V17.5558V3.55507V2.78584H175.475H196.867C197.632 2.78584 198.257 2.16199 198.257 1.3943C198.257 0.626605 197.632 0.0012207 196.867 0.0012207H173.316C172.549 0.0012207 171.924 0.626605 171.924 1.3943V38.1358C171.924 38.9035 172.549 39.5281 173.316 39.5281H196.867C197.632 39.5281 198.257 38.9035 198.257 38.1358C198.257 37.3697 197.632 36.7443 196.867 36.7443Z" fill="white"/>
<path fill-rule="evenodd" clip-rule="evenodd" d="M94.3092 37.5179L106.67 1.03178C106.878 0.416398 107.456 0.000244141 108.108 0.000244141H111.613C112.264 0.000244141 112.842 0.416398 113.051 1.03178L125.411 37.5179C125.681 38.3126 125.256 39.1764 124.462 39.4456C124.3 39.501 124.135 39.5279 123.973 39.5279C123.341 39.5279 122.751 39.1287 122.536 38.4949L110.524 3.04101H109.197L102.028 24.1995H113.142L114.17 27.2402H100.998L97.1851 38.4949C96.9707 39.1287 96.3798 39.5279 95.7467 39.5279C95.5854 39.5279 95.421 39.501 95.2588 39.4456C94.4651 39.1764 94.0395 38.3126 94.3092 37.5179Z" fill="white"/>
</svg>