<svg width="40" height="40" viewBox="0 0 40 40" fill="none" xmlns="http://www.w3.org/2000/svg">
<path fill-rule="evenodd" clip-rule="evenodd" d="M37.5 6.25V33.75C37.5 35.8203 35.8203 37.5 33.75 37.5H6.25C4.17969 37.5 2.5 35.8203 2.5 33.75V6.25C2.5 4.17969 4.17969 2.5 6.25 2.5H33.75C35.8203 2.5 37.5 4.17969 37.5 6.25ZM17.4922 22.7891C17.4922 21.625 16.5625 20.6953 15.4219 20.6953C14.2578 20.6953 13.3281 21.625 13.3281 22.7891C13.3281 23.9297 14.2578 24.8594 15.4219 24.8594C16.5625 24.8594 17.4922 23.9297 17.4922 22.7891ZM24.625 26.9922C24.8359 27.2031 24.8359 27.5234 24.625 27.7109C22.7109 29.625 17.2969 29.6328 15.375 27.7109C15.1641 27.5234 15.1641 27.2031 15.375 26.9922C15.5625 26.8047 15.8828 26.8047 16.0703 26.9922C17.5312 28.4922 22.3984 28.5234 23.9219 26.9922C24.1094 26.8125 24.4375 26.8125 24.625 26.9922ZM22.5078 22.7891C22.5078 21.625 23.4375 20.6953 24.5781 20.6953C25.7422 20.6953 26.6719 21.625 26.6719 22.7891C26.6719 23.9297 25.7422 24.8594 24.5781 24.8594C23.4375 24.8594 22.5078 23.9297 22.5078 22.7891ZM27.7109 18.0703C28.2266 17.5625 28.9219 17.2344 29.7109 17.2344C32.625 17.2344 33.5937 21.1406 30.9687 22.4844C31.0859 22.9062 31.1328 23.3672 31.1328 23.8125C31.1328 28.2266 26.1562 31.8047 20.0234 31.8047C13.9141 31.8047 8.9375 28.2266 8.9375 23.8125C8.9375 23.3672 8.98438 22.9297 9.07812 22.5078C6.39844 21.1719 7.35938 17.2344 10.2891 17.2344C11.0781 17.2344 11.8047 17.5625 12.3125 18.0938C14.1953 16.7891 16.7031 15.9531 19.4922 15.8359L21.0937 8.58594C21.1641 8.32812 21.4141 8.14062 21.6719 8.21094L26.8047 9.35156C27.1562 8.67188 27.8516 8.1875 28.6641 8.1875C29.8281 8.1875 30.7578 9.14062 30.7578 10.2812C30.7578 11.4219 29.8281 12.375 28.6641 12.375C27.5234 12.375 26.5937 11.4453 26.5937 10.3047L21.9453 9.25781L20.4844 15.8359C23.2969 15.9297 25.8281 16.7656 27.7109 18.0703Z" fill="black"/>
<mask id="mask0_1_318" style="mask-type:luminance" maskUnits="userSpaceOnUse" x="2" y="2" width="36" height="36">
<path fill-rule="evenodd" clip-rule="evenodd" d="M37.5 6.25V33.75C37.5 35.8203 35.8203 37.5 33.75 37.5H6.25C4.17969 37.5 2.5 35.8203 2.5 33.75V6.25C2.5 4.17969 4.17969 2.5 6.25 2.5H33.75C35.8203 2.5 37.5 4.17969 37.5 6.25ZM17.4922 22.7891C17.4922 21.625 16.5625 20.6953 15.4219 20.6953C14.2578 20.6953 13.3281 21.625 13.3281 22.7891C13.3281 23.9297 14.2578 24.8594 15.4219 24.8594C16.5625 24.8594 17.4922 23.9297 17.4922 22.7891ZM24.625 26.9922C24.8359 27.2031 24.8359 27.5234 24.625 27.7109C22.7109 29.625 17.2969 29.6328 15.375 27.7109C15.1641 27.5234 15.1641 27.2031 15.375 26.9922C15.5625 26.8047 15.8828 26.8047 16.0703 26.9922C17.5312 28.4922 22.3984 28.5234 23.9219 26.9922C24.1094 26.8125 24.4375 26.8125 24.625 26.9922ZM22.5078 22.7891C22.5078 21.625 23.4375 20.6953 24.5781 20.6953C25.7422 20.6953 26.6719 21.625 26.6719 22.7891C26.6719 23.9297 25.7422 24.8594 24.5781 24.8594C23.4375 24.8594 22.5078 23.9297 22.5078 22.7891ZM27.7109 18.0703C28.2266 17.5625 28.9219 17.2344 29.7109 17.2344C32.625 17.2344 33.5937 21.1406 30.9687 22.4844C31.0859 22.9062 31.1328 23.3672 31.1328 23.8125C31.1328 28.2266 26.1562 31.8047 20.0234 31.8047C13.9141 31.8047 8.9375 28.2266 8.9375 23.8125C8.9375 23.3672 8.98438 22.9297 9.07812 22.5078C6.39844 21.1719 7.35938 17.2344 10.2891 17.2344C11.0781 17.2344 11.8047 17.5625 12.3125 18.0938C14.1953 16.7891 16.7031 15.9531 19.4922 15.8359L21.0937 8.58594C21.1641 8.32812 21.4141 8.14062 21.6719 8.21094L26.8047 9.35156C27.1562 8.67188 27.8516 8.1875 28.6641 8.1875C29.8281 8.1875 30.7578 9.14062 30.7578 10.2812C30.7578 11.4219 29.8281 12.375 28.6641 12.375C27.5234 12.375 26.5937 11.4453 26.5937 10.3047L21.9453 9.25781L20.4844 15.8359C23.2969 15.9297 25.8281 16.7656 27.7109 18.0703Z" fill="white"/>
</mask>
<g mask="url(#mask0_1_318)">
<rect width="40" height="40" fill="#5B10FF"/>
</g>
</svg>