<svg width="24" height="24" viewBox="0 0 24 24" fill="none" xmlns="http://www.w3.org/2000/svg">
<path fill-rule="evenodd" clip-rule="evenodd" d="M22.5 3.75V20.25C22.5 21.4922 21.4922 22.5 20.25 22.5H3.75C2.50781 22.5 1.5 21.4922 1.5 20.25V3.75C1.5 2.50781 2.50781 1.5 3.75 1.5H20.25C21.4922 1.5 22.5 2.50781 22.5 3.75ZM10.4953 13.6734C10.4953 12.975 9.9375 12.4172 9.25313 12.4172C8.55469 12.4172 7.99688 12.975 7.99688 13.6734C7.99688 14.3578 8.55469 14.9156 9.25313 14.9156C9.9375 14.9156 10.4953 14.3578 10.4953 13.6734ZM14.775 16.1953C14.9016 16.3219 14.9016 16.5141 14.775 16.6266C13.6266 17.775 10.3781 17.7797 9.225 16.6266C9.09844 16.5141 9.09844 16.3219 9.225 16.1953C9.3375 16.0828 9.52969 16.0828 9.64219 16.1953C10.5187 17.0953 13.4391 17.1141 14.3531 16.1953C14.4656 16.0875 14.6625 16.0875 14.775 16.1953ZM13.5047 13.6734C13.5047 12.975 14.0625 12.4172 14.7469 12.4172C15.4453 12.4172 16.0031 12.975 16.0031 13.6734C16.0031 14.3578 15.4453 14.9156 14.7469 14.9156C14.0625 14.9156 13.5047 14.3578 13.5047 13.6734ZM16.6266 10.8422C16.9359 10.5375 17.3531 10.3406 17.8266 10.3406C19.575 10.3406 20.1562 12.6844 18.5812 13.4906C18.6516 13.7437 18.6797 14.0203 18.6797 14.2875C18.6797 16.9359 15.6937 19.0828 12.0141 19.0828C8.34844 19.0828 5.3625 16.9359 5.3625 14.2875C5.3625 14.0203 5.39062 13.7578 5.44687 13.5047C3.83906 12.7031 4.41562 10.3406 6.17344 10.3406C6.64687 10.3406 7.08281 10.5375 7.3875 10.8562C8.51719 10.0734 10.0219 9.57187 11.6953 9.50156L12.6562 5.15156C12.6984 4.99688 12.8484 4.88438 13.0031 4.92656L16.0828 5.61094C16.2937 5.20313 16.7109 4.9125 17.1984 4.9125C17.8969 4.9125 18.4547 5.48438 18.4547 6.16875C18.4547 6.85313 17.8969 7.425 17.1984 7.425C16.5141 7.425 15.9563 6.86719 15.9563 6.18281L13.1672 5.55469L12.2906 9.50156C13.9781 9.55781 15.4969 10.0594 16.6266 10.8422Z" fill="black"/>
<mask id="mask0_1_103" style="mask-type:luminance" maskUnits="userSpaceOnUse" x="1" y="1" width="22" height="22">
<path fill-rule="evenodd" clip-rule="evenodd" d="M22.5 3.75V20.25C22.5 21.4922 21.4922 22.5 20.25 22.5H3.75C2.50781 22.5 1.5 21.4922 1.5 20.25V3.75C1.5 2.50781 2.50781 1.5 3.75 1.5H20.25C21.4922 1.5 22.5 2.50781 22.5 3.75ZM10.4953 13.6734C10.4953 12.975 9.9375 12.4172 9.25313 12.4172C8.55469 12.4172 7.99688 12.975 7.99688 13.6734C7.99688 14.3578 8.55469 14.9156 9.25313 14.9156C9.9375 14.9156 10.4953 14.3578 10.4953 13.6734ZM14.775 16.1953C14.9016 16.3219 14.9016 16.5141 14.775 16.6266C13.6266 17.775 10.3781 17.7797 9.225 16.6266C9.09844 16.5141 9.09844 16.3219 9.225 16.1953C9.3375 16.0828 9.52969 16.0828 9.64219 16.1953C10.5187 17.0953 13.4391 17.1141 14.3531 16.1953C14.4656 16.0875 14.6625 16.0875 14.775 16.1953ZM13.5047 13.6734C13.5047 12.975 14.0625 12.4172 14.7469 12.4172C15.4453 12.4172 16.0031 12.975 16.0031 13.6734C16.0031 14.3578 15.4453 14.9156 14.7469 14.9156C14.0625 14.9156 13.5047 14.3578 13.5047 13.6734ZM16.6266 10.8422C16.9359 10.5375 17.3531 10.3406 17.8266 10.3406C19.575 10.3406 20.1562 12.6844 18.5812 13.4906C18.6516 13.7437 18.6797 14.0203 18.6797 14.2875C18.6797 16.9359 15.6937 19.0828 12.0141 19.0828C8.34844 19.0828 5.3625 16.9359 5.3625 14.2875C5.3625 14.0203 5.39062 13.7578 5.44687 13.5047C3.83906 12.7031 4.41562 10.3406 6.17344 10.3406C6.64687 10.3406 7.08281 10.5375 7.3875 10.8562C8.51719 10.0734 10.0219 9.57187 11.6953 9.50156L12.6562 5.15156C12.6984 4.99688 12.8484 4.88438 13.0031 4.92656L16.0828 5.61094C16.2937 5.20313 16.7109 4.9125 17.1984 4.9125C17.8969 4.9125 18.4547 5.48438 18.4547 6.16875C18.4547 6.85313 17.8969 7.425 17.1984 7.425C16.5141 7.425 15.9563 6.86719 15.9563 6.18281L13.1672 5.55469L12.2906 9.50156C13.9781 9.55781 15.4969 10.0594 16.6266 10.8422Z" fill="white"/>
</mask>
<g mask="url(#mask0_1_103)">
<rect width="24" height="24" fill="white"/>
</g>
</svg>