<svg width="24" height="24" viewBox="0 0 24 24" fill="none" xmlns="http://www.w3.org/2000/svg">
<path fill-rule="evenodd" clip-rule="evenodd" d="M22.5 3.74902V20.249C22.5 21.4912 21.4922 22.499 20.25 22.499H3.75C2.50781 22.499 1.5 21.4912 1.5 20.249V3.74902C1.5 2.50684 2.50781 1.49902 3.75 1.49902H20.25C21.4922 1.49902 22.5 2.50684 22.5 3.74902ZM10.4953 13.6725C10.4953 12.974 9.9375 12.4162 9.25313 12.4162C8.55469 12.4162 7.99688 12.974 7.99688 13.6725C7.99688 14.3568 8.55469 14.9146 9.25313 14.9146C9.9375 14.9146 10.4953 14.3568 10.4953 13.6725ZM14.775 16.1943C14.9016 16.3209 14.9016 16.5131 14.775 16.6256C13.6266 17.774 10.3781 17.7787 9.225 16.6256C9.09844 16.5131 9.09844 16.3209 9.225 16.1943C9.3375 16.0818 9.52969 16.0818 9.64219 16.1943C10.5187 17.0943 13.4391 17.1131 14.3531 16.1943C14.4656 16.0865 14.6625 16.0865 14.775 16.1943ZM13.5047 13.6725C13.5047 12.974 14.0625 12.4162 14.7469 12.4162C15.4453 12.4162 16.0031 12.974 16.0031 13.6725C16.0031 14.3568 15.4453 14.9146 14.7469 14.9146C14.0625 14.9146 13.5047 14.3568 13.5047 13.6725ZM16.6266 10.8412C16.9359 10.5365 17.3531 10.3396 17.8266 10.3396C19.575 10.3396 20.1562 12.6834 18.5812 13.4896C18.6516 13.7428 18.6797 14.0193 18.6797 14.2865C18.6797 16.935 15.6937 19.0818 12.0141 19.0818C8.34844 19.0818 5.3625 16.935 5.3625 14.2865C5.3625 14.0193 5.39062 13.7568 5.44687 13.5037C3.83906 12.7021 4.41562 10.3396 6.17344 10.3396C6.64687 10.3396 7.08281 10.5365 7.3875 10.8553C8.51719 10.0725 10.0219 9.5709 11.6953 9.50059L12.6562 5.15059C12.6984 4.9959 12.8484 4.8834 13.0031 4.92559L16.0828 5.60996C16.2937 5.20215 16.7109 4.91152 17.1984 4.91152C17.8969 4.91152 18.4547 5.4834 18.4547 6.16777C18.4547 6.85215 17.8969 7.42402 17.1984 7.42402C16.5141 7.42402 15.9563 6.86621 15.9563 6.18184L13.1672 5.55371L12.2906 9.50059C13.9781 9.55684 15.4969 10.0584 16.6266 10.8412Z" fill="black"/>
<mask id="mask0_1_134" style="mask-type:luminance" maskUnits="userSpaceOnUse" x="1" y="1" width="22" height="22">
<path fill-rule="evenodd" clip-rule="evenodd" d="M22.5 3.74902V20.249C22.5 21.4912 21.4922 22.499 20.25 22.499H3.75C2.50781 22.499 1.5 21.4912 1.5 20.249V3.74902C1.5 2.50684 2.50781 1.49902 3.75 1.49902H20.25C21.4922 1.49902 22.5 2.50684 22.5 3.74902ZM10.4953 13.6725C10.4953 12.974 9.9375 12.4162 9.25313 12.4162C8.55469 12.4162 7.99688 12.974 7.99688 13.6725C7.99688 14.3568 8.55469 14.9146 9.25313 14.9146C9.9375 14.9146 10.4953 14.3568 10.4953 13.6725ZM14.775 16.1943C14.9016 16.3209 14.9016 16.5131 14.775 16.6256C13.6266 17.774 10.3781 17.7787 9.225 16.6256C9.09844 16.5131 9.09844 16.3209 9.225 16.1943C9.3375 16.0818 9.52969 16.0818 9.64219 16.1943C10.5187 17.0943 13.4391 17.1131 14.3531 16.1943C14.4656 16.0865 14.6625 16.0865 14.775 16.1943ZM13.5047 13.6725C13.5047 12.974 14.0625 12.4162 14.7469 12.4162C15.4453 12.4162 16.0031 12.974 16.0031 13.6725C16.0031 14.3568 15.4453 14.9146 14.7469 14.9146C14.0625 14.9146 13.5047 14.3568 13.5047 13.6725ZM16.6266 10.8412C16.9359 10.5365 17.3531 10.3396 17.8266 10.3396C19.575 10.3396 20.1562 12.6834 18.5812 13.4896C18.6516 13.7428 18.6797 14.0193 18.6797 14.2865C18.6797 16.935 15.6937 19.0818 12.0141 19.0818C8.34844 19.0818 5.3625 16.935 5.3625 14.2865C5.3625 14.0193 5.39062 13.7568 5.44687 13.5037C3.83906 12.7021 4.41562 10.3396 6.17344 10.3396C6.64687 10.3396 7.08281 10.5365 7.3875 10.8553C8.51719 10.0725 10.0219 9.5709 11.6953 9.50059L12.6562 5.15059C12.6984 4.9959 12.8484 4.8834 13.0031 4.92559L16.0828 5.60996C16.2937 5.20215 16.7109 4.91152 17.1984 4.91152C17.8969 4.91152 18.4547 5.4834 18.4547 6.16777C18.4547 6.85215 17.8969 7.42402 17.1984 7.42402C16.5141 7.42402 15.9563 6.86621 15.9563 6.18184L13.1672 5.55371L12.2906 9.50059C13.9781 9.55684 15.4969 10.0584 16.6266 10.8412Z" fill="white" opacity="0.8"/>
</mask>
<g mask="url(#mask0_1_134)">
<rect y="-0.000976562" width="24" height="24" fill="white" opacity="0.8"/>
</g>
</svg>