<svg width="200" height="200" viewBox="0 0 200 200" fill="none" xmlns="http://www.w3.org/2000/svg">
<path fill-rule="evenodd" clip-rule="evenodd" d="M85.354 5.90824C90.265 3.20824 96.248 2.00024 99.999 2.00024C103.75 2.00024 109.733 3.20824 114.643 5.90824C120.827 9.30824 124.096 14.3702 124.096 20.5472C124.096 22.6365 123.671 25.5314 123.626 25.8388L123.626 25.839L123.626 25.8391L123.622 25.8652C123.425 27.1562 122.665 29.1792 121.967 30.2742C121.881 30.4082 113.201 44.0432 109.595 53.5872C108.098 57.5482 106.522 63.8512 106.344 64.5712C106.052 65.7642 104.935 67.4652 103.954 68.2082C103.229 68.7572 101.469 69.7952 99.996 69.7952C99.816 69.7952 99.617 69.7802 99.375 69.7492L99.226 69.7292C98.994 69.6922 98.803 69.6532 98.6 69.5992C98.402 69.5452 98.189 69.4722 97.956 69.3822L97.797 69.3192L97.578 69.2272L97.185 69.0372L97.149 69.0192C97.147 69.018 97.1451 69.0169 97.1431 69.0159L97.141 69.0148L97.1331 69.011L97.133 69.011L97.125 69.0072C97.0818 68.9844 97.0159 68.9477 96.9045 68.8858L96.904 68.8855C96.8403 68.8501 96.7617 68.8064 96.664 68.7522L96.6632 68.7515C96.6624 68.7507 96.6615 68.75 96.66 68.7492L96.426 68.6012C96.4138 68.594 96.4014 68.5865 96.388 68.578C96.3642 68.5629 96.3372 68.5449 96.302 68.5212L96.088 68.3842L95.768 68.1552L95.618 68.0482L95.145 67.6802L94.907 67.4772L94.778 67.3672L94.577 67.1922C94.389 66.9232 93.996 65.9712 93.649 64.5602C93.475 63.8542 91.899 57.5472 90.403 53.5872C86.796 44.0402 78.116 30.4052 78.036 30.2802C77.347 29.1992 76.894 28.4882 76.727 28.2032C76.673 27.9092 76.621 27.6202 76.573 27.3442L76.5715 27.3354L76.5657 27.3007L76.564 27.2902L76.555 27.2392C76.499 26.9032 76.445 26.5732 76.396 26.2452C76.3945 26.2348 76.3928 26.2243 76.391 26.2139C76.3893 26.2033 76.3875 26.1928 76.386 26.1822C76.284 25.5092 76.196 24.8372 76.125 24.2002L76.12 24.1502L76.113 24.0852C76.084 23.8262 76.06 23.5702 76.036 23.2952L76.016 23.0562C75.998 22.8492 75.983 22.6452 75.97 22.4492L75.953 22.1762C75.943 21.9903 75.9347 21.8093 75.9265 21.6317L75.924 21.5772L75.919 21.4572L75.915 21.3312C75.907 21.0632 75.902 20.8032 75.902 20.5472C75.902 14.3702 79.171 9.30824 85.354 5.90824ZM73.921 21.5282L73.926 21.6542C73.935 21.8622 73.944 22.0682 73.955 22.2782L73.958 22.3222L73.974 22.5732C73.988 22.7932 74.004 23.0112 74.023 23.2322L74.0231 23.2329C74.029 23.3097 74.036 23.3995 74.045 23.4892C74.068 23.7592 74.095 24.0302 74.125 24.3042L74.131 24.3602L74.136 24.4072C74.211 25.0862 74.303 25.7862 74.411 26.5022L74.4135 26.5186C74.4151 26.5278 74.4169 26.5378 74.418 26.5412C74.469 26.8812 74.524 27.2232 74.583 27.5712L74.595 27.6372L74.601 27.6732C74.657 28.0022 74.718 28.3392 74.781 28.6792C74.782 28.6852 74.783 28.6922 74.784 28.6972C74.7886 28.7238 74.7928 28.7479 74.7979 28.7717C74.846 28.9962 74.9777 29.2027 76.3497 31.3548L76.3499 31.355L76.35 31.3552L76.35 31.3552C76.437 31.4902 85.023 45.0072 88.532 54.2942C90.0175 58.2231 91.6063 64.6329 91.7053 65.0322L91.71 65.0512C91.875 65.7222 92.467 67.9662 93.186 68.6342C93.1919 68.6391 93.1978 68.6442 93.2038 68.6494L93.22 68.6632L93.466 68.8772L93.495 68.9022L93.608 68.9992L93.85 69.2042C93.8593 69.2129 93.8697 69.221 93.8804 69.2293L93.893 69.2392L94.39 69.6262L94.4018 69.6353L94.4192 69.6486L94.447 69.6692L94.603 69.7802L94.925 70.0112L94.9366 70.0195C94.9435 70.0243 94.9506 70.029 94.9578 70.0337L94.974 70.0442L95.215 70.2002C95.26 70.2302 95.323 70.2712 95.386 70.3092L95.623 70.4602C95.6366 70.4674 95.6494 70.4749 95.6625 70.4827L95.684 70.4952C96.067 70.7092 96.189 70.7762 96.254 70.8082L96.2559 70.8092C96.2573 70.8098 96.2586 70.8102 96.26 70.8102L96.2635 70.8123L96.266 70.8142C96.2804 70.8215 96.3045 70.8332 96.336 70.8484L96.4344 70.8958L96.5005 70.9277C96.5679 70.9601 96.6446 70.9971 96.725 71.0362C96.7291 71.0386 96.7333 71.0408 96.7375 71.043C96.7441 71.0462 96.7507 71.0493 96.7575 71.0523L96.7714 71.0581L96.7919 71.0662L96.792 71.0662L97.025 71.1642L97.1334 71.2079C97.1634 71.2199 97.193 71.2317 97.223 71.2432C97.532 71.3632 97.81 71.4562 98.068 71.5272L98.104 71.5362C98.353 71.6032 98.611 71.6572 98.917 71.7052C98.988 71.7162 99.059 71.7252 99.13 71.7342C99.449 71.7752 99.732 71.7952 99.996 71.7952C102.457 71.7952 104.892 70.0072 105.161 69.8032C106.512 68.7792 107.885 66.6912 108.287 65.0472L108.292 65.0285C108.39 64.6325 109.98 58.2232 111.466 54.2942C114.974 45.0102 123.561 31.4932 123.647 31.3582C124.502 30.0172 125.359 27.7372 125.599 26.1662L125.6 26.1588V26.1588C125.632 25.9432 126.096 22.8472 126.096 20.5472C126.096 13.5962 122.469 7.92924 115.606 4.15524C110.387 1.28524 104.006 0.000244141 99.999 0.000244141C95.991 0.000244141 89.611 1.28524 84.391 4.15524C77.529 7.92924 73.902 13.5962 73.902 20.5472C73.902 20.8222 73.907 21.1032 73.916 21.3912L73.921 21.5282ZM26.8052 47.5146C28.3682 42.1326 31.7442 37.0486 34.3972 34.3966C37.6852 31.1096 45.7842 25.8936 53.5212 25.8936C57.8012 25.8936 61.5122 27.4346 64.5512 30.4726C69.7782 35.6996 76.0892 46.6196 80.2552 57.6496C84.8502 69.8136 85.6272 79.0426 82.3342 82.3356C80.9892 83.6806 78.6982 84.3626 75.5242 84.3626C74.3072 84.3626 73.9372 84.3266 73.9352 84.3266C72.6532 84.1806 70.6792 83.4286 69.6172 82.6786C68.7232 82.0506 60.7262 76.4726 55.2822 74.0136C47.8752 70.6676 35.2192 67.2696 35.1022 67.2396C33.8542 66.9046 32.0632 65.9966 31.1712 65.2486L30.4722 64.5496C26.1052 60.1826 24.8372 54.2916 26.8052 47.5146ZM29.7772 66.6836L29.8023 66.7072C29.8192 66.7232 29.8357 66.7389 29.8532 66.7536C30.9612 67.6956 33.0392 68.7566 34.5852 69.1706C34.7112 69.2036 47.2262 72.5696 54.4592 75.8356C59.9372 78.3106 68.3872 84.2586 68.4722 84.3186C69.7972 85.2536 72.0972 86.1296 73.7092 86.3136C73.7812 86.3216 74.2102 86.3626 75.5242 86.3626C79.2482 86.3626 82.0142 85.4836 83.7482 83.7506C89.1192 78.3786 85.0372 64.6496 82.1262 56.9426C77.8692 45.6736 71.3752 34.4676 65.9652 29.0586C62.5382 25.6316 58.3512 23.8936 53.5212 23.8936C45.1222 23.8936 36.6372 29.3286 32.9832 32.9826C30.1492 35.8156 26.5472 41.2346 24.8852 46.9566C22.7002 54.4776 24.1432 61.0496 29.0582 65.9636L29.7772 66.6836ZM146.477 25.8956C142.196 25.8956 138.485 27.4356 135.447 30.4736C130.22 35.7006 123.909 46.6206 119.742 57.6496C115.146 69.8126 114.369 79.0396 117.662 82.3336C119.008 83.6786 121.3 84.3606 124.474 84.3606C125.681 84.3606 126.045 84.3266 126.06 84.3246C127.342 84.1786 129.315 83.4276 130.369 82.6846C131.271 82.0506 139.273 76.4696 144.717 74.0106C152.126 70.6656 164.783 67.2676 164.908 67.2356C166.148 66.9036 167.938 65.9966 168.829 65.2496L169.525 64.5526C173.894 60.1836 175.162 54.2926 173.194 47.5156C171.632 42.1356 168.255 37.0516 165.602 34.3986C162.315 31.1116 154.217 25.8956 146.477 25.8956ZM124.474 86.3606C120.75 86.3606 117.982 85.4816 116.248 83.7476C110.877 78.3766 114.96 64.6476 117.871 56.9426C122.129 45.6746 128.623 34.4696 134.033 29.0596C137.46 25.6326 141.647 23.8956 146.477 23.8956C154.88 23.8956 163.364 29.3306 167.016 32.9846C169.849 35.8176 173.453 41.2376 175.115 46.9576C177.299 54.4786 175.855 61.0506 170.94 65.9656L170.222 66.6846C170.21 66.6968 170.198 66.709 170.185 66.721C170.172 66.7325 170.16 66.7438 170.146 66.7546C169.041 67.6946 166.965 68.7546 165.418 69.1686L165.415 69.1696C165.142 69.2432 152.73 72.5883 145.54 75.8326C140.064 78.3066 131.607 84.2586 131.522 84.3186C130.198 85.2526 127.898 86.1286 126.285 86.3116C126.213 86.3206 125.787 86.3606 124.474 86.3606ZM99.999 111.847C93.467 111.847 88.153 106.533 88.153 99.9997C88.153 93.4678 93.467 88.1547 99.999 88.1547C106.531 88.1547 111.846 93.4678 111.846 99.9997C111.846 106.533 106.531 111.847 99.999 111.847ZM99.999 86.1547C92.352 86.1547 86.153 92.3527 86.153 99.9997C86.153 107.647 92.352 113.847 99.999 113.847C107.645 113.847 113.846 107.647 113.846 99.9997C113.846 92.3527 107.645 86.1547 99.999 86.1547ZM114.644 194.092C109.733 196.792 103.75 198 99.999 198C96.248 198 90.265 196.792 85.355 194.092C79.171 190.692 75.902 185.63 75.902 179.453C75.902 177.612 76.244 174.992 76.376 174.135C76.573 172.843 77.334 170.82 78.031 169.725C78.117 169.591 86.798 155.953 90.403 146.413C91.9 142.453 93.475 136.15 93.653 135.429C93.944 134.237 95.062 132.537 96.043 131.793C96.769 131.243 98.529 130.205 100.002 130.205C104.662 130.205 110.637 137.28 115.986 149.131C120.836 159.873 124.096 172.059 124.096 179.453C124.096 185.63 120.827 190.692 114.644 194.092ZM100.002 128.205C97.54 128.205 95.105 129.994 94.836 130.198C93.486 131.222 92.112 133.31 91.71 134.953L91.7053 134.972C91.607 135.368 90.0178 141.777 88.532 145.706C85.022 154.994 76.437 168.506 76.351 168.641C75.496 169.982 74.639 172.263 74.399 173.834L74.3985 173.837C74.3725 174.01 73.902 177.136 73.902 179.453C73.902 186.404 77.529 192.071 84.392 195.845C89.611 198.715 95.992 200 99.999 200C104.006 200 110.387 198.715 115.607 195.845C122.469 192.071 126.096 186.404 126.096 179.453C126.096 171.801 122.766 159.285 117.809 148.308C114.42 140.8 107.598 128.205 100.002 128.205ZM143.589 183.271L183.276 143.584C184.076 142.783 184.447 141.951 184.293 141.301C184.14 140.651 183.438 140.074 182.368 139.718L121.262 119.347C120.758 119.18 120.29 119.091 119.912 119.091C119.602 119.091 119.355 119.151 119.253 119.254C119.084 119.423 118.969 120.1 119.354 121.259L139.723 182.362C139.92 182.952 140.496 184.322 141.609 184.322C142.208 184.322 142.911 183.948 143.589 183.271ZM121.894 117.449L183 137.82C186.657 139.038 187.42 142.269 184.69 144.998L145.004 184.685C143.899 185.789 142.712 186.322 141.609 186.322C139.988 186.322 138.55 185.171 137.826 182.995L117.456 121.89C116.845 120.052 117.041 118.64 117.839 117.839C118.326 117.354 119.029 117.091 119.912 117.091C120.498 117.091 121.162 117.206 121.894 117.449ZM179.451 124.097C185.628 124.096 190.691 120.828 194.091 114.644C196.791 109.733 197.999 103.75 197.998 100.001C197.999 96.2496 196.791 90.2676 194.091 85.3546C190.69 79.1716 185.628 75.9036 179.451 75.9036C172.057 75.9036 159.872 79.1626 149.13 84.0126C137.279 89.3636 130.205 95.3386 130.205 99.9976C130.205 104.657 137.279 110.633 149.13 115.986C159.872 120.837 172.057 124.097 179.451 124.097ZM179.451 73.9036C186.401 73.9036 192.07 77.5306 195.843 84.3916C198.714 89.6136 199.999 95.9936 199.998 99.9996C199.999 104.007 198.714 110.387 195.843 115.608C192.07 122.469 186.402 126.096 179.451 126.097C171.799 126.097 159.284 122.766 148.306 117.808C140.799 114.417 128.205 107.595 128.205 99.9976C128.205 92.4016 140.799 85.5806 148.306 82.1906C159.284 77.2336 171.799 73.9036 179.451 73.9036ZM64.5483 169.526C61.5123 172.564 57.8023 174.104 53.5203 174.104C45.7833 174.104 37.6843 168.888 34.3963 165.6C31.7433 162.95 28.3663 157.866 26.8043 152.484C24.8353 145.707 26.1043 139.816 30.4713 135.448L31.1693 134.751C32.0613 134.003 33.8513 133.096 35.1203 132.756C36.4413 132.4 48.2253 129.174 55.2813 125.989C60.7263 123.53 68.7263 117.951 69.6293 117.317C70.6803 116.573 72.6543 115.822 73.9263 115.676L73.931 115.676C73.9786 115.672 74.3668 115.639 75.5233 115.639C78.6983 115.639 80.9903 116.321 82.3353 117.666C85.6283 120.959 84.8503 130.187 80.2553 142.351C76.0893 153.377 69.7773 164.297 64.5483 169.526ZM83.7493 116.252C82.0153 114.518 79.2483 113.639 75.5233 113.639C74.2113 113.639 73.7853 113.68 73.7133 113.688C72.1003 113.872 69.7993 114.747 68.4743 115.683C68.3893 115.743 59.9333 121.693 54.4583 124.167C47.3172 127.39 35.0245 130.712 34.593 130.829L34.5823 130.831C33.0363 131.244 30.9593 132.304 29.8523 133.245C29.8263 133.267 29.8003 133.291 29.7763 133.315L29.0573 134.034C24.1423 138.949 22.6993 145.522 24.8833 153.042C26.5453 158.763 30.1483 164.183 32.9823 167.015C36.6353 170.669 45.1203 176.104 53.5203 176.104C58.3513 176.104 62.5383 174.367 65.9633 170.94C71.3733 165.53 77.8693 154.325 82.1263 143.058C85.0373 135.352 89.1203 121.623 83.7493 116.252ZM5.90691 114.645C9.30791 120.828 14.3699 124.097 20.5469 124.097C27.9409 124.097 40.1259 120.838 50.8679 115.988C62.7179 110.637 69.7929 104.661 69.7929 100.003C69.7929 95.3438 62.7179 89.3677 50.8679 84.0147C40.1279 79.1637 27.9429 75.9047 20.5469 75.9037C14.3699 75.9047 9.30691 79.1727 5.90691 85.3568C3.20691 90.2687 1.99891 96.2507 1.99991 100.001C1.99891 103.751 3.20691 109.734 5.90691 114.645ZM51.6919 82.1927C59.1989 85.5827 71.7929 92.4057 71.7929 100.003C71.7929 107.599 59.1989 114.42 51.6919 117.81C40.7139 122.767 28.1979 126.097 20.5469 126.097C13.5969 126.097 7.92791 122.47 4.15391 115.609C1.28391 110.388 -0.00109039 104.007 -9.09702e-05 100.001C-0.00109039 95.9927 1.28391 89.6147 4.15391 84.3927C7.92791 77.5317 13.5959 73.9047 20.5469 73.9037C28.1979 73.9047 40.7139 77.2347 51.6919 82.1927Z" fill="url(#paint0_linear_1_170)"/>
<defs>
<linearGradient id="paint0_linear_1_170" x1="-9.15527e-05" y1="200" x2="199.998" y2="200" gradientUnits="userSpaceOnUse">
<stop stop-color="#5B10FF"/>
<stop offset="1" stop-color="#3F0BAF"/>
</linearGradient>
</defs>
</svg>