<svg width="200" height="200" viewBox="0 0 200 200" fill="none" xmlns="http://www.w3.org/2000/svg">
<path fill-rule="evenodd" clip-rule="evenodd" d="M99.9622 -0.000244141C82.3796 -0.000244141 65.0839 4.62685 49.9445 13.3805C49.4242 13.6812 49.2462 14.3479 49.5469 14.8672C49.8475 15.3884 50.5152 15.5665 51.0335 15.2648C65.8426 6.70103 82.7614 2.17483 99.9622 2.17483C153.924 2.17483 197.824 46.059 197.824 99.9996C197.824 153.939 153.924 197.823 99.9622 197.823C82.7614 197.823 65.8426 193.296 51.0335 184.731C50.5152 184.431 49.8475 184.608 49.5469 185.128C49.2462 185.648 49.4242 186.314 49.9445 186.615C65.0839 195.371 82.3796 199.998 99.9622 199.998C155.123 199.998 200 155.14 200 99.9996C200 44.8602 155.123 -0.000244141 99.9622 -0.000244141ZM81.8471 139.871C82.3189 139.499 82.399 138.815 82.0271 138.343C81.6552 137.871 80.9697 137.791 80.4989 138.163C61.2724 153.343 33.6929 151.716 16.3487 134.376C7.20925 125.241 2.17563 113.094 2.17662 100.174C2.17662 87.2549 7.21024 75.1085 16.3487 65.975C33.6929 48.6377 61.2715 47.0087 80.4989 62.1877C80.9688 62.5596 81.6542 62.4795 82.0271 62.0076C82.399 61.5358 82.3189 60.8514 81.8471 60.4795C61.7541 44.617 32.9352 46.3173 14.8096 64.4359C5.26069 73.9819 0.000561872 86.6733 -0.000427246 100.174C-0.000427246 113.675 5.25871 126.369 14.8096 135.917C24.6256 145.728 37.5771 150.725 50.5811 150.725C61.589 150.724 72.6354 147.143 81.8471 139.871ZM47.1655 110.776C48.2396 111.107 49.3583 111.275 50.4889 111.275C56.7094 111.275 61.7698 106.217 61.7698 99.9996C61.7698 93.781 56.7094 88.7226 50.4889 88.7226C44.2683 88.7226 39.209 93.781 39.209 99.9996C39.209 101.128 39.3771 102.246 39.7085 103.321C39.8846 103.896 39.5631 104.504 38.9894 104.681C38.4167 104.857 37.8064 104.537 37.6284 103.962C37.2327 102.68 37.0329 101.346 37.0329 99.9996C37.0329 92.5812 43.0695 86.5476 50.4889 86.5476C57.9093 86.5476 63.9458 92.5812 63.9458 99.9996C63.9458 107.417 57.9093 113.451 50.4889 113.451C49.1407 113.451 47.8074 113.251 46.5245 112.857C45.9508 112.68 45.6284 112.071 45.8054 111.497C45.9825 110.921 46.5908 110.6 47.1655 110.776Z" fill="url(#paint0_linear_1_224)"/>
<defs>
<linearGradient id="paint0_linear_1_224" x1="-0.000427246" y1="199.998" x2="200" y2="199.998" gradientUnits="userSpaceOnUse">
<stop stop-color="#5B10FF"/>
<stop offset="1" stop-color="#3F0BAF"/>
</linearGradient>
</defs>
</svg>