<svg width="200" height="192" viewBox="0 0 200 192" fill="none" xmlns="http://www.w3.org/2000/svg">
<path fill-rule="evenodd" clip-rule="evenodd" d="M89.98 15.316L83.714 2.785L77.445 15.314L89.98 15.316ZM90.884 16.982H76.541C75.814 16.982 75.379 16.589 75.379 16.029C75.379 15.83 75.434 15.61 75.55 15.381L82.91 0.662C83.131 0.221 83.422 0 83.712 0C84.003 0 84.293 0.22 84.515 0.662L91.875 15.38C91.991 15.61 92.046 15.83 92.046 16.029C92.046 16.589 91.612 16.982 90.884 16.982ZM89.98 36.1421L83.714 23.6121L77.445 36.1401L89.98 36.1421ZM90.884 37.8081L76.541 37.8071C75.814 37.8071 75.379 37.4151 75.379 36.8541C75.379 36.6561 75.434 36.4361 75.55 36.2071L82.91 21.4881C83.131 21.0471 83.422 20.8261 83.712 20.8261C84.003 20.8261 84.293 21.0471 84.515 21.4871L91.875 36.2061C91.991 36.4361 92.046 36.6561 92.046 36.8551C92.046 37.4151 91.612 37.8081 90.884 37.8081ZM76.5675 47.9646C76.5675 47.0456 77.3155 46.2986 78.2335 46.2986H89.1915C90.1095 46.2986 90.8575 47.0456 90.8575 47.9646V101.123C90.8575 102.042 90.1095 102.789 89.1915 102.789H78.2335C77.3155 102.789 76.5675 102.042 76.5675 101.123V47.9646ZM78.2335 104.456H89.1915C91.0315 104.456 92.5245 102.964 92.5245 101.123V47.9646C92.5245 46.1246 91.0315 44.6326 89.1915 44.6326H78.2335C76.3925 44.6326 74.9005 46.1246 74.9005 47.9646V101.123C74.9005 102.964 76.3925 104.456 78.2335 104.456ZM10.145 190.244C15.518 189.198 159.889 156.678 182.881 150.756C193.598 147.995 198.364 135.928 198.334 125.193C198.314 117.869 196.067 109.942 191.248 104.805C191.289 105.07 191.313 105.339 191.293 105.611C191.169 107.265 189.869 108.621 187.43 109.641C178.145 113.526 9.87 146.985 8.35 147.247C7.904 147.325 7.469 147.363 7.049 147.363C5.741 147.363 4.561 146.992 3.525 146.252C2.754 145.702 2.148 145 1.668 144.269V179.076C1.668 185.811 5.572 190.334 9.218 190.334C9.526 190.334 9.838 190.304 10.145 190.244ZM186.574 99.2827C186.649 99.3277 186.819 99.4347 187.039 99.5837C205.402 108.769 204.339 146.948 183.296 152.369C160.912 158.135 15.815 190.839 10.463 191.88C10.045 191.96 9.63 192 9.218 192C4.346 192 0 186.473 0 179.076V71.5127C0 63.4947 4.317 58.7147 10.472 58.7147C11.349 58.7147 38.794 64.9277 71.568 72.4257V74.1367C39.407 66.7907 12.34 60.6667 10.392 60.3807C5.008 60.4227 1.668 64.6797 1.668 71.5127V139.848C1.731 140.193 2.369 143.386 4.499 144.902C5.506 145.617 6.672 145.85 8.066 145.607C18.461 143.811 178.427 111.602 186.787 108.104C188.601 107.345 189.558 106.465 189.631 105.486C189.753 103.856 187.496 101.932 186.21 101.036C185.172 100.524 184.069 100.107 182.889 99.8097C178.617 98.7347 137.1 89.1467 95.858 79.6947V77.9937C138.293 87.7367 181.069 97.6337 183.296 98.1927C184.3 98.4457 185.256 98.7767 186.169 99.1757C186.308 99.1797 186.446 99.2067 186.574 99.2827Z" fill="url(#paint0_linear_1_203)"/>
<defs>
<linearGradient id="paint0_linear_1_203" x1="0" y1="192" x2="200" y2="192" gradientUnits="userSpaceOnUse">
<stop stop-color="#5B10FF"/>
<stop offset="1" stop-color="#3F0BAF"/>
</linearGradient>
</defs>
</svg>