<svg width="40" height="40" viewBox="0 0 40 40" fill="none" xmlns="http://www.w3.org/2000/svg">
<path fill-rule="evenodd" clip-rule="evenodd" d="M6.25 2.5H33.75C35.8203 2.5 37.5 4.17969 37.5 6.25V33.75C37.5 35.8203 35.8203 37.5 33.75 37.5H6.25C4.17969 37.5 2.5 35.8203 2.5 33.75V6.25C2.5 4.17969 4.17969 2.5 6.25 2.5ZM29.9453 15.5703C29.9453 15.3516 29.9453 15.125 29.9297 14.9062C30.9297 14.1797 31.8047 13.2734 32.5 12.25C31.5781 12.6484 30.5781 12.9375 29.5469 13.0469C30.6094 12.4141 31.4141 11.4141 31.7969 10.2266C30.8125 10.8125 29.7031 11.2422 28.5469 11.4609C27.6094 10.4609 26.2812 9.84375 24.8047 9.84375C21.6797 9.84375 19.0781 12.6641 19.8047 16.1406C15.5547 15.9219 11.7656 13.8906 9.24219 10.7812C8.79688 11.5391 8.54688 12.4141 8.54688 13.3672C8.54407 15.0816 9.40066 16.6833 10.8281 17.6328C9.99219 17.6016 9.19531 17.3672 8.51562 16.9844V17.0469C8.51562 19.5391 10.2734 21.6016 12.6172 22.0781C11.8047 22.2891 11.0938 22.2891 10.3047 22.1719C10.9531 24.2031 12.8438 25.6797 15.0938 25.7266C13.3359 27.1016 11.1328 27.9141 8.73438 27.9141C8.3125 27.9141 7.91406 27.8984 7.5 27.8516C9.76562 29.3047 12.4609 30.1484 15.3672 30.1484C24.7891 30.1484 29.9453 22.3438 29.9453 15.5703Z" fill="black"/>
<mask id="mask0_1_320" style="mask-type:luminance" maskUnits="userSpaceOnUse" x="2" y="2" width="36" height="36">
<path fill-rule="evenodd" clip-rule="evenodd" d="M6.25 2.5H33.75C35.8203 2.5 37.5 4.17969 37.5 6.25V33.75C37.5 35.8203 35.8203 37.5 33.75 37.5H6.25C4.17969 37.5 2.5 35.8203 2.5 33.75V6.25C2.5 4.17969 4.17969 2.5 6.25 2.5ZM29.9453 15.5703C29.9453 15.3516 29.9453 15.125 29.9297 14.9062C30.9297 14.1797 31.8047 13.2734 32.5 12.25C31.5781 12.6484 30.5781 12.9375 29.5469 13.0469C30.6094 12.4141 31.4141 11.4141 31.7969 10.2266C30.8125 10.8125 29.7031 11.2422 28.5469 11.4609C27.6094 10.4609 26.2812 9.84375 24.8047 9.84375C21.6797 9.84375 19.0781 12.6641 19.8047 16.1406C15.5547 15.9219 11.7656 13.8906 9.24219 10.7812C8.79688 11.5391 8.54688 12.4141 8.54688 13.3672C8.54407 15.0816 9.40066 16.6833 10.8281 17.6328C9.99219 17.6016 9.19531 17.3672 8.51562 16.9844V17.0469C8.51562 19.5391 10.2734 21.6016 12.6172 22.0781C11.8047 22.2891 11.0938 22.2891 10.3047 22.1719C10.9531 24.2031 12.8438 25.6797 15.0938 25.7266C13.3359 27.1016 11.1328 27.9141 8.73438 27.9141C8.3125 27.9141 7.91406 27.8984 7.5 27.8516C9.76562 29.3047 12.4609 30.1484 15.3672 30.1484C24.7891 30.1484 29.9453 22.3438 29.9453 15.5703Z" fill="white"/>
</mask>
<g mask="url(#mask0_1_320)">
<rect width="40" height="40" fill="#5B10FF"/>
</g>
</svg>