<svg width="24" height="24" viewBox="0 0 24 24" fill="none" xmlns="http://www.w3.org/2000/svg">
<path fill-rule="evenodd" clip-rule="evenodd" d="M3.75 1.5H20.25C21.4922 1.5 22.5 2.50781 22.5 3.75V20.25C22.5 21.4922 21.4922 22.5 20.25 22.5H3.75C2.50781 22.5 1.5 21.4922 1.5 20.25V3.75C1.5 2.50781 2.50781 1.5 3.75 1.5ZM17.9672 9.34211C17.9672 9.21088 17.9672 9.07497 17.9578 8.94375C18.5578 8.50781 19.0828 7.96406 19.5 7.35C18.9469 7.58906 18.3469 7.7625 17.7281 7.82812C18.3656 7.44844 18.8484 6.84844 19.0781 6.13594C18.4875 6.4875 17.8219 6.74531 17.1281 6.87656C16.5656 6.27656 15.7688 5.90625 14.8828 5.90625C13.0078 5.90625 11.4469 7.59844 11.8828 9.68437C9.33281 9.55313 7.05937 8.33437 5.54531 6.46875C5.27813 6.92344 5.12812 7.44844 5.12812 8.02031C5.12644 9.04896 5.6404 10.01 6.49687 10.5797C5.99531 10.5609 5.51719 10.4203 5.10938 10.1906V10.2281C5.10938 11.7234 6.16406 12.9609 7.57031 13.2469C7.08281 13.3734 6.65625 13.3734 6.18281 13.3031C6.57188 14.5219 7.70625 15.4078 9.05625 15.4359C8.00156 16.2609 6.67969 16.7484 5.24062 16.7484C4.9875 16.7484 4.74844 16.7391 4.5 16.7109C5.85938 17.5828 7.47656 18.0891 9.22031 18.0891C14.8734 18.0891 17.9672 13.4062 17.9672 9.34219V9.34211Z" fill="black"/>
<mask id="mask0_1_105" style="mask-type:luminance" maskUnits="userSpaceOnUse" x="1" y="1" width="22" height="22">
<path fill-rule="evenodd" clip-rule="evenodd" d="M3.75 1.5H20.25C21.4922 1.5 22.5 2.50781 22.5 3.75V20.25C22.5 21.4922 21.4922 22.5 20.25 22.5H3.75C2.50781 22.5 1.5 21.4922 1.5 20.25V3.75C1.5 2.50781 2.50781 1.5 3.75 1.5ZM17.9672 9.34211C17.9672 9.21088 17.9672 9.07497 17.9578 8.94375C18.5578 8.50781 19.0828 7.96406 19.5 7.35C18.9469 7.58906 18.3469 7.7625 17.7281 7.82812C18.3656 7.44844 18.8484 6.84844 19.0781 6.13594C18.4875 6.4875 17.8219 6.74531 17.1281 6.87656C16.5656 6.27656 15.7688 5.90625 14.8828 5.90625C13.0078 5.90625 11.4469 7.59844 11.8828 9.68437C9.33281 9.55313 7.05937 8.33437 5.54531 6.46875C5.27813 6.92344 5.12812 7.44844 5.12812 8.02031C5.12644 9.04896 5.6404 10.01 6.49687 10.5797C5.99531 10.5609 5.51719 10.4203 5.10938 10.1906V10.2281C5.10938 11.7234 6.16406 12.9609 7.57031 13.2469C7.08281 13.3734 6.65625 13.3734 6.18281 13.3031C6.57188 14.5219 7.70625 15.4078 9.05625 15.4359C8.00156 16.2609 6.67969 16.7484 5.24062 16.7484C4.9875 16.7484 4.74844 16.7391 4.5 16.7109C5.85938 17.5828 7.47656 18.0891 9.22031 18.0891C14.8734 18.0891 17.9672 13.4062 17.9672 9.34219V9.34211Z" fill="white"/>
</mask>
<g mask="url(#mask0_1_105)">
<rect width="24" height="24" fill="white"/>
</g>
</svg>