<svg width="24" height="24" viewBox="0 0 24 24" fill="none" xmlns="http://www.w3.org/2000/svg">
<path fill-rule="evenodd" clip-rule="evenodd" d="M3.75 1.49902H20.25C21.4922 1.49902 22.5 2.50684 22.5 3.74902V20.249C22.5 21.4912 21.4922 22.499 20.25 22.499H3.75C2.50781 22.499 1.5 21.4912 1.5 20.249V3.74902C1.5 2.50684 2.50781 1.49902 3.75 1.49902ZM17.9672 9.34113C17.9672 9.20991 17.9672 9.074 17.9578 8.94277C18.5578 8.50684 19.0828 7.96309 19.5 7.34902C18.9469 7.58809 18.3469 7.76152 17.7281 7.82715C18.3656 7.44746 18.8484 6.84746 19.0781 6.13496C18.4875 6.48652 17.8219 6.74434 17.1281 6.87559C16.5656 6.27559 15.7688 5.90527 14.8828 5.90527C13.0078 5.90527 11.4469 7.59746 11.8828 9.6834C9.33281 9.55215 7.05937 8.3334 5.54531 6.46777C5.27813 6.92246 5.12812 7.44746 5.12812 8.01934C5.12644 9.04798 5.6404 10.009 6.49687 10.5787C5.99531 10.56 5.51719 10.4193 5.10938 10.1896V10.2271C5.10938 11.7225 6.16406 12.96 7.57031 13.2459C7.08281 13.3725 6.65625 13.3725 6.18281 13.3021C6.57188 14.5209 7.70625 15.4068 9.05625 15.435C8.00156 16.26 6.67969 16.7475 5.24062 16.7475C4.9875 16.7475 4.74844 16.7381 4.5 16.71C5.85938 17.5818 7.47656 18.0881 9.22031 18.0881C14.8734 18.0881 17.9672 13.4053 17.9672 9.34121V9.34113Z" fill="black"/>
<mask id="mask0_1_136" style="mask-type:luminance" maskUnits="userSpaceOnUse" x="1" y="1" width="22" height="22">
<path fill-rule="evenodd" clip-rule="evenodd" d="M3.75 1.49902H20.25C21.4922 1.49902 22.5 2.50684 22.5 3.74902V20.249C22.5 21.4912 21.4922 22.499 20.25 22.499H3.75C2.50781 22.499 1.5 21.4912 1.5 20.249V3.74902C1.5 2.50684 2.50781 1.49902 3.75 1.49902ZM17.9672 9.34113C17.9672 9.20991 17.9672 9.074 17.9578 8.94277C18.5578 8.50684 19.0828 7.96309 19.5 7.34902C18.9469 7.58809 18.3469 7.76152 17.7281 7.82715C18.3656 7.44746 18.8484 6.84746 19.0781 6.13496C18.4875 6.48652 17.8219 6.74434 17.1281 6.87559C16.5656 6.27559 15.7688 5.90527 14.8828 5.90527C13.0078 5.90527 11.4469 7.59746 11.8828 9.6834C9.33281 9.55215 7.05937 8.3334 5.54531 6.46777C5.27813 6.92246 5.12812 7.44746 5.12812 8.01934C5.12644 9.04798 5.6404 10.009 6.49687 10.5787C5.99531 10.56 5.51719 10.4193 5.10938 10.1896V10.2271C5.10938 11.7225 6.16406 12.96 7.57031 13.2459C7.08281 13.3725 6.65625 13.3725 6.18281 13.3021C6.57188 14.5209 7.70625 15.4068 9.05625 15.435C8.00156 16.26 6.67969 16.7475 5.24062 16.7475C4.9875 16.7475 4.74844 16.7381 4.5 16.71C5.85938 17.5818 7.47656 18.0881 9.22031 18.0881C14.8734 18.0881 17.9672 13.4053 17.9672 9.34121V9.34113Z" fill="white" opacity="0.8"/>
</mask>
<g mask="url(#mask0_1_136)">
<rect y="-0.000976562" width="24" height="24" fill="white" opacity="0.8"/> 
</g>
</svg>