<svg width="40" height="40" viewBox="0 0 40 40" fill="none" xmlns="http://www.w3.org/2000/svg">
<path fill-rule="evenodd" clip-rule="evenodd" d="M35.6277 6.77876C37.3487 7.24172 38.7041 8.60593 39.1642 10.3381C40 13.4778 40 20.0284 40 20.0284C40 20.0284 40 26.5791 39.1642 29.7187C38.7041 31.4509 37.3487 32.7583 35.6277 33.2212C32.5083 34.0625 20 34.0625 20 34.0625C20 34.0625 7.49171 34.0625 4.37226 33.2212C2.65129 32.7583 1.29587 31.4509 0.835839 29.7187C0 26.5791 0 20.0284 0 20.0284C0 20.0284 0 13.4778 0.835839 10.3381C1.29587 8.60593 2.65129 7.2418 4.37226 6.77876C7.49171 5.9375 20 5.9375 20 5.9375C20 5.9375 32.5084 5.9375 35.6277 6.77876ZM26.3636 20.0286L15.9091 14.0809V25.9759L26.3636 20.0286Z" fill="black"/>
<mask id="mask0_1_319" style="mask-type:luminance" maskUnits="userSpaceOnUse" x="0" y="5" width="40" height="30">
<path fill-rule="evenodd" clip-rule="evenodd" d="M35.6277 6.77876C37.3487 7.24172 38.7041 8.60593 39.1642 10.3381C40 13.4778 40 20.0284 40 20.0284C40 20.0284 40 26.5791 39.1642 29.7187C38.7041 31.4509 37.3487 32.7583 35.6277 33.2212C32.5083 34.0625 20 34.0625 20 34.0625C20 34.0625 7.49171 34.0625 4.37226 33.2212C2.65129 32.7583 1.29587 31.4509 0.835839 29.7187C0 26.5791 0 20.0284 0 20.0284C0 20.0284 0 13.4778 0.835839 10.3381C1.29587 8.60593 2.65129 7.2418 4.37226 6.77876C7.49171 5.9375 20 5.9375 20 5.9375C20 5.9375 32.5084 5.9375 35.6277 6.77876ZM26.3636 20.0286L15.9091 14.0809V25.9759L26.3636 20.0286Z" fill="white"/>
</mask>
<g mask="url(#mask0_1_319)">
<rect width="40" height="40" fill="#5B10FF"/>
</g>
</svg>