<svg width="24" height="24" viewBox="0 0 24 24" fill="none" xmlns="http://www.w3.org/2000/svg">
<path fill-rule="evenodd" clip-rule="evenodd" d="M21.3766 4.06628C22.4092 4.34406 23.2225 5.16258 23.4985 6.20189C24 8.08569 24 12.0161 24 12.0161C24 12.0161 24 15.9465 23.4985 17.8303C23.2225 18.8696 22.4092 19.654 21.3766 19.9318C19.505 20.4365 12 20.4365 12 20.4365C12 20.4365 4.49503 20.4365 2.62336 19.9318C1.59077 19.654 0.777523 18.8696 0.501503 17.8303C0 15.9465 0 12.0161 0 12.0161C0 12.0161 0 8.08569 0.501503 6.20189C0.777523 5.16258 1.59077 4.3441 2.62336 4.06628C4.49503 3.56152 12 3.56152 12 3.56152C12 3.56152 19.505 3.56152 21.3766 4.06628ZM9.54544 8.44758V15.5846L15.8181 12.0162L9.54544 8.44758Z" fill="black"/>
<mask id="mask0_1_135" style="mask-type:luminance" maskUnits="userSpaceOnUse" x="0" y="3" width="24" height="18">
<path fill-rule="evenodd" clip-rule="evenodd" d="M21.3766 4.06628C22.4092 4.34406 23.2225 5.16258 23.4985 6.20189C24 8.08569 24 12.0161 24 12.0161C24 12.0161 24 15.9465 23.4985 17.8303C23.2225 18.8696 22.4092 19.654 21.3766 19.9318C19.505 20.4365 12 20.4365 12 20.4365C12 20.4365 4.49503 20.4365 2.62336 19.9318C1.59077 19.654 0.777523 18.8696 0.501503 17.8303C0 15.9465 0 12.0161 0 12.0161C0 12.0161 0 8.08569 0.501503 6.20189C0.777523 5.16258 1.59077 4.3441 2.62336 4.06628C4.49503 3.56152 12 3.56152 12 3.56152C12 3.56152 19.505 3.56152 21.3766 4.06628ZM9.54544 8.44758V15.5846L15.8181 12.0162L9.54544 8.44758Z" fill="white" opacity="0.8"/>
</mask>
<g mask="url(#mask0_1_135)">
<rect y="-0.000976562" width="24" height="24" fill="white" opacity="0.8"/>
</g>
</svg>