<svg width="24" height="24" viewBox="0 0 24 24" fill="none" xmlns="http://www.w3.org/2000/svg">
<path fill-rule="evenodd" clip-rule="evenodd" d="M21.3766 4.06726C22.4092 4.34503 23.2225 5.16356 23.4985 6.20287C24 8.08667 24 12.0171 24 12.0171C24 12.0171 24 15.9474 23.4985 17.8312C23.2225 18.8705 22.4092 19.655 21.3766 19.9327C19.505 20.4375 12 20.4375 12 20.4375C12 20.4375 4.49503 20.4375 2.62336 19.9327C1.59077 19.655 0.777523 18.8705 0.501503 17.8312C0 15.9474 0 12.0171 0 12.0171C0 12.0171 0 8.08667 0.501503 6.20287C0.777523 5.16356 1.59077 4.34508 2.62336 4.06726C4.49503 3.5625 12 3.5625 12 3.5625C12 3.5625 19.505 3.5625 21.3766 4.06726ZM9.54544 8.44856V15.5855L15.8181 12.0171L9.54544 8.44856Z" fill="black"/>
<mask id="mask0_1_104" style="mask-type:luminance" maskUnits="userSpaceOnUse" x="0" y="3" width="24" height="18">
<path fill-rule="evenodd" clip-rule="evenodd" d="M21.3766 4.06726C22.4092 4.34503 23.2225 5.16356 23.4985 6.20287C24 8.08667 24 12.0171 24 12.0171C24 12.0171 24 15.9474 23.4985 17.8312C23.2225 18.8705 22.4092 19.655 21.3766 19.9327C19.505 20.4375 12 20.4375 12 20.4375C12 20.4375 4.49503 20.4375 2.62336 19.9327C1.59077 19.655 0.777523 18.8705 0.501503 17.8312C0 15.9474 0 12.0171 0 12.0171C0 12.0171 0 8.08667 0.501503 6.20287C0.777523 5.16356 1.59077 4.34508 2.62336 4.06726C4.49503 3.5625 12 3.5625 12 3.5625C12 3.5625 19.505 3.5625 21.3766 4.06726ZM9.54544 8.44856V15.5855L15.8181 12.0171L9.54544 8.44856Z" fill="white"/>
</mask>
<g mask="url(#mask0_1_104)">
<rect width="24" height="24" fill="white"/>
</g>
</svg>